<?xml version="1.0" standalone="no"?>
<!DOCTYPE svg PUBLIC "-//W3C//DTD SVG 20010904//EN"
 "http://www.w3.org/TR/2001/REC-SVG-20010904/DTD/svg10.dtd">
<svg version="1.0" xmlns="http://www.w3.org/2000/svg"
 width="512.000000pt" height="512.000000pt" viewBox="0 0 512.000000 512.000000"
 preserveAspectRatio="xMidYMid meet">
<metadata>
Created by potrace 1.14, written by Peter Selinger 2001-2017
</metadata>
<g transform="translate(0.000000,512.000000) scale(0.100000,-0.100000)"
fill="#000000" stroke="none">
<path d="M404 5110 c-6 -6 -21 -13 -34 -15 -13 -2 -26 -8 -29 -12 -3 -5 -15
-10 -26 -11 -11 -2 -22 -7 -25 -11 -3 -3 -17 -12 -32 -18 -16 -7 -28 -17 -28
-23 0 -6 -4 -8 -10 -5 -5 3 -10 1 -10 -4 0 -6 -3 -10 -8 -8 -4 1 -9 -2 -11 -8
-2 -5 -12 -16 -23 -23 -10 -7 -15 -18 -12 -24 4 -7 2 -8 -4 -4 -7 4 -12 2 -12
-4 0 -6 -4 -9 -9 -5 -5 3 -12 -4 -16 -15 -3 -11 -11 -20 -16 -20 -6 0 -7 -4
-4 -10 3 -5 1 -10 -6 -10 -7 0 -10 -3 -6 -6 3 -3 -3 -16 -14 -27 -11 -12 -18
-26 -15 -32 2 -5 -3 -17 -11 -26 -7 -9 -15 -26 -18 -38 -2 -11 -7 -26 -10 -31
-3 -6 0 -10 7 -10 10 0 10 -2 -1 -9 -7 -5 -10 -14 -7 -20 4 -6 4 -11 -1 -11
-13 0 -12 -134 1 -142 8 -6 8 -8 0 -8 -13 0 -13 -59 0 -79 6 -9 5 -12 -2 -7
-14 8 -12 -34 2 -53 8 -11 8 -13 0 -8 -7 4 -11 -7 -11 -33 0 -26 4 -37 11 -33
6 4 5 -1 -3 -10 -11 -14 -11 -20 0 -34 8 -10 9 -14 2 -10 -15 9 -14 -32 1 -52
8 -11 8 -13 -1 -8 -15 9 -14 -32 1 -52 8 -11 8 -13 0 -8 -7 4 -11 -7 -11 -33
0 -26 4 -37 11 -33 6 4 5 -1 -3 -10 -11 -14 -11 -20 0 -34 8 -10 9 -14 2 -10
-15 9 -14 -32 1 -52 8 -11 8 -13 -1 -8 -15 9 -14 -32 1 -52 8 -11 8 -13 0 -8
-7 4 -11 -7 -11 -33 0 -26 4 -37 11 -33 6 4 5 -1 -3 -10 -11 -14 -11 -20 0
-34 8 -10 9 -14 2 -10 -15 9 -14 -32 1 -52 8 -11 8 -13 -1 -8 -15 9 -14 -32 1
-52 8 -11 8 -13 0 -8 -7 4 -11 -7 -11 -33 0 -26 4 -37 11 -33 6 4 5 -1 -3 -10
-11 -14 -11 -20 0 -34 8 -10 9 -14 2 -10 -15 9 -14 -32 1 -52 8 -11 8 -13 -1
-8 -15 9 -14 -32 1 -52 8 -11 8 -13 0 -8 -7 4 -11 -7 -11 -33 0 -26 4 -37 11
-33 6 4 5 -1 -3 -10 -11 -14 -11 -20 0 -34 8 -10 9 -14 2 -10 -15 9 -14 -32 1
-52 8 -11 8 -13 -1 -8 -15 9 -14 -32 1 -52 8 -11 8 -13 0 -8 -7 4 -11 -7 -11
-33 0 -26 4 -37 11 -33 6 4 5 -1 -3 -10 -11 -14 -11 -20 0 -34 8 -10 9 -14 2
-10 -15 9 -14 -32 1 -52 8 -11 8 -13 -1 -8 -15 9 -14 -32 1 -52 8 -11 8 -13 0
-8 -7 4 -11 -7 -11 -33 0 -26 4 -37 11 -33 6 4 5 -1 -3 -10 -11 -14 -11 -20 0
-34 8 -10 9 -14 2 -10 -15 9 -14 -32 1 -52 8 -11 8 -13 -1 -8 -15 9 -14 -32 1
-52 8 -11 8 -13 0 -8 -7 4 -11 -7 -11 -33 0 -26 4 -37 11 -33 6 4 5 -1 -3 -10
-11 -14 -11 -20 0 -34 8 -10 9 -14 2 -10 -15 9 -14 -32 1 -52 8 -11 8 -13 -1
-8 -15 9 -14 -32 1 -52 8 -11 8 -13 0 -8 -7 4 -11 -7 -11 -33 0 -26 4 -37 11
-33 6 4 5 -1 -3 -10 -11 -14 -11 -20 0 -34 8 -10 9 -14 2 -10 -15 9 -14 -32 1
-52 8 -11 8 -13 -1 -8 -15 9 -14 -32 1 -52 8 -11 8 -13 0 -8 -7 4 -11 -7 -11
-33 0 -26 4 -37 11 -33 6 4 5 -1 -3 -10 -11 -14 -11 -20 0 -34 8 -10 9 -14 2
-10 -15 9 -14 -32 1 -52 8 -11 8 -13 -1 -8 -15 9 -14 -32 1 -52 8 -11 8 -13 0
-8 -7 4 -11 -7 -11 -33 0 -26 4 -37 11 -33 6 4 5 -1 -3 -10 -11 -14 -11 -20 0
-34 8 -10 9 -14 2 -10 -15 9 -14 -32 1 -52 8 -11 8 -13 -1 -8 -15 9 -14 -32 1
-52 8 -11 8 -13 0 -8 -7 4 -11 -7 -11 -33 0 -26 4 -37 11 -33 6 4 5 -1 -3 -10
-11 -14 -11 -20 0 -34 8 -10 9 -14 2 -10 -15 9 -14 -32 1 -52 8 -11 8 -13 -1
-8 -15 9 -14 -32 1 -52 8 -11 8 -13 0 -8 -7 4 -11 -7 -11 -33 0 -26 4 -37 11
-33 6 4 5 -1 -3 -10 -11 -14 -11 -20 0 -34 8 -10 9 -14 2 -10 -15 9 -14 -32 1
-52 8 -11 8 -13 -1 -8 -15 9 -14 -32 1 -52 8 -11 8 -13 0 -8 -7 4 -11 -7 -11
-33 0 -26 4 -37 11 -33 6 4 5 -1 -3 -10 -11 -14 -11 -20 0 -34 8 -10 9 -14 2
-10 -15 9 -14 -32 1 -52 8 -11 8 -13 -1 -8 -15 9 -14 -32 1 -52 8 -11 8 -13 0
-8 -7 4 -11 -7 -11 -33 0 -26 4 -37 11 -33 6 4 5 -1 -3 -10 -11 -14 -11 -20 0
-34 8 -10 9 -14 2 -10 -15 9 -14 -32 1 -52 8 -11 8 -13 -1 -8 -15 9 -14 -32 1
-52 8 -11 8 -13 0 -8 -7 4 -11 -7 -11 -33 0 -26 4 -37 11 -33 6 4 5 -1 -3 -10
-11 -14 -11 -20 0 -34 8 -10 9 -14 2 -10 -15 9 -14 -32 1 -52 8 -11 8 -13 -1
-8 -15 9 -14 -32 1 -52 8 -11 8 -13 0 -8 -7 4 -11 -5 -12 -24 0 -20 3 -27 11
-22 8 5 8 2 -1 -9 -12 -15 -11 -23 4 -66 4 -9 8 -28 10 -41 2 -13 7 -27 12
-30 5 -3 8 -14 6 -24 -1 -10 3 -20 10 -23 7 -3 19 -20 26 -39 7 -19 17 -32 22
-29 4 3 8 -2 8 -11 0 -8 7 -18 16 -22 8 -3 13 -12 10 -19 -3 -8 -2 -13 2 -13
20 3 32 -2 29 -13 -1 -7 3 -12 10 -13 6 0 20 -11 32 -23 11 -13 25 -21 30 -17
6 3 11 0 11 -8 0 -13 33 -31 52 -28 3 0 12 -6 18 -14 7 -8 23 -15 36 -15 13 0
24 -5 24 -11 0 -8 5 -8 15 1 11 9 15 9 15 1 0 -7 4 -9 10 -6 5 3 10 2 10 -4 0
-7 679 -10 2145 -10 1531 -1 2144 3 2142 10 -1 6 10 12 24 14 15 2 40 10 57
19 16 8 32 12 36 9 3 -4 6 2 6 13 0 14 2 16 9 6 7 -11 9 -11 14 2 4 9 13 16
22 16 8 0 15 7 15 16 0 8 5 12 10 9 6 -3 13 1 16 9 3 9 9 14 13 12 4 -3 15 5
24 17 10 12 29 36 42 52 14 17 32 45 40 62 9 18 21 33 27 33 6 0 8 3 5 7 -4 3
-1 13 6 21 10 13 9 14 -3 7 -13 -8 -13 -7 0 9 16 21 21 38 23 83 1 20 4 28 9
20 4 -6 8 939 8 2102 0 1668 -3 2117 -13 2130 -10 12 -9 13 1 7 11 -7 12 -4 3
11 -5 11 -12 33 -15 48 -3 16 -10 33 -16 39 -5 5 -10 18 -10 28 0 10 -3 18 -7
18 -5 0 -16 18 -27 40 -10 21 -25 41 -32 44 -8 3 -14 12 -14 21 0 8 -4 15 -9
15 -5 0 -24 16 -42 35 -18 19 -35 33 -37 30 -2 -2 -16 7 -30 20 -14 13 -29 22
-34 19 -4 -3 -8 0 -8 5 0 6 -9 11 -20 11 -11 0 -20 6 -20 13 0 8 -4 7 -10 -3
-5 -8 -10 -10 -10 -4 0 19 -46 34 -60 21 -9 -9 -11 -9 -7 -1 4 7 0 14 -8 18
-8 3 -964 5 -2125 6 -1670 0 -2110 -3 -2110 -13 0 -8 -4 -7 -11 3 -8 11 -12
12 -16 3 -2 -7 -9 -13 -14 -13 -6 0 -7 5 -4 10 8 13 2 13 -11 0z m4281 -5090
c3 -5 1 -10 -4 -10 -6 0 -11 5 -11 10 0 6 2 10 4 10 3 0 8 -4 11 -10z"/>
</g>
</svg>
